# xmcd
#
# Track frame offsets: 
#        150
#        15558
#        32770
#        51171
#        69774
#        88782
#        103831
#        120163
#
# Disc length: 1770 seconds
#
# Revision: 0
# Processed by: cddbd v1.5.2PL0 Copyright (c) Steve Scherf et al.
# Submitted via: ExactAudioCopy v1.1
#
DISCID=5a06e808
DTITLE=GB Leighton - Get Up
DYEAR=2013
DGENRE=Country
TTITLE0=Get Up
TTITLE1=Something You Would Die For
TTITLE2=When I Get Home
TTITLE3=All Over the Map
TTITLE4=Go Ahead and Break Her Heart
TTITLE5=We've Got It All
TTITLE6=Settling Down
TTITLE7=Your Sweet Love
EXTD=
EXTT0=
EXTT1=
EXTT2=
EXTT3=
EXTT4=
EXTT5=
EXTT6=
EXTT7=
PLAYORDER=
